<?xml version="1.0" standalone="no"?><!DOCTYPE svg PUBLIC "-//W3C//DTD SVG 1.1//EN" "http://www.w3.org/Graphics/SVG/1.1/DTD/svg11.dtd"><svg t="1634136812917" class="icon" viewBox="0 0 1024 1024" version="1.1" xmlns="http://www.w3.org/2000/svg" p-id="25846" xmlns:xlink="http://www.w3.org/1999/xlink" width="32" height="32"><defs><style type="text/css"></style></defs><path d="M664.8658 810.661182h60.772164c151.820714-50.606905 239.578352-170.396081 263.272915-359.367528 3.290911-101.286941-11.847281-177.197298-45.633972-227.804202-87.757638-145.092628-229.486224-219.394095-425.185757-222.685007C447.226858-2.559598 362.394474 3.656568 275.221887 46.365285 96.781356 133.537873 15.313015 290.989702 1.710582 466.431846a598.799617 598.799617 0 0 0 45.56084 278.411107c84.393595 175.515276 219.394095 268.318978 404.928368 278.411107 165.350016 6.728086 312.197797-45.56084 440.397081-156.939909l-55.652969-60.699033c-151.893845 124.83524-317.243862 160.303952-496.050049 106.259873-155.257888-67.50025-239.578352-195.699533-253.107655-384.67098a541.903415 541.903415 0 0 1 60.699033-232.850267C222.932961 159.426376 342.429611 74.886518 508.072153 76.787933c243.74684 2.705861 376.260873 121.471197 399.882305 303.714559 3.364043 168.714059-57.408122 281.77515-182.243362 339.11014h-30.349517c-23.621431-16.820214-32.104669-40.441645-25.303452-70.864292l126.517262-420.139693H695.288448l-15.211324 55.7261-30.349517-40.514776c-84.393595-57.33499-172.078102-59.017012-263.272914-5.119195-80.956421 60.772164-133.245347 137.560098-156.866778 230.3638-23.621431 92.803702-21.93941 168.714059 5.119196 227.804202 26.912342 59.017012 74.155204 93.608147 141.655454 103.773407 77.66551 6.728086 146.77465-21.93941 207.546814-86.075617v5.119196c0 43.805688 27.058605 74.155204 81.029552 91.048549zM437.134729 709.447373l-65.818228-5.119196c-50.606905-16.820214-72.546314-60.699033-65.818229-131.563326 27.058605-168.714059 99.531788-264.881804 217.638943-288.503235 70.937424 3.364043 111.379069 30.349517 121.544328 80.956421-10.16526 175.515276-79.347531 290.185257-207.546814 344.229336z" p-id="25847" fill="#8360C3"></path></svg>