<?xml version="1.0" standalone="no"?><!DOCTYPE svg PUBLIC "-//W3C//DTD SVG 1.1//EN" "http://www.w3.org/Graphics/SVG/1.1/DTD/svg11.dtd"><svg t="1634136487735" class="icon" viewBox="0 0 1024 1024" version="1.1" xmlns="http://www.w3.org/2000/svg" p-id="24805" xmlns:xlink="http://www.w3.org/1999/xlink" width="32" height="32"><defs><style type="text/css"></style></defs><path d="M341.333333 284.444444a56.888889 56.888889 0 0 1 56.888889 56.888889v113.777778a56.888889 56.888889 0 1 1-113.777778 0V341.333333a56.888889 56.888889 0 0 1 56.888889-56.888889z m341.333334 0a56.888889 56.888889 0 0 1 56.888889 56.888889v113.777778a56.888889 56.888889 0 1 1-113.777778 0V341.333333a56.888889 56.888889 0 0 1 56.888889-56.888889zM113.777778 74.524444a39.253333 39.253333 0 0 0-39.253334 39.253334v796.444444c0 21.674667 17.578667 39.253333 39.253334 39.253334h796.444444a39.253333 39.253333 0 0 0 39.253334-39.253334V113.777778a39.253333 39.253333 0 0 0-39.253334-39.253334H113.777778zM113.777778 0h796.444444a113.777778 113.777778 0 0 1 113.777778 113.777778v796.444444a113.777778 113.777778 0 0 1-113.777778 113.777778H113.777778a113.777778 113.777778 0 0 1-113.777778-113.777778V113.777778a113.777778 113.777778 0 0 1 113.777778-113.777778z m150.016 762.88a37.262222 37.262222 0 0 1 38.855111-63.658667c70.997333 43.349333 140.970667 64.739556 210.488889 64.739556 69.404444 0 139.434667-21.390222 210.488889-64.739556a37.262222 37.262222 0 1 1 38.798222 63.601778c-82.261333 50.232889-165.546667 75.662222-249.287111 75.662222-83.797333 0-167.082667-25.429333-249.344-75.662222z" p-id="24806" fill="#8360C3"></path></svg>