<?xml version="1.0" standalone="no"?><!DOCTYPE svg PUBLIC "-//W3C//DTD SVG 1.1//EN" "http://www.w3.org/Graphics/SVG/1.1/DTD/svg11.dtd"><svg t="1634135242455" class="icon" viewBox="0 0 1024 1024" version="1.1" xmlns="http://www.w3.org/2000/svg" p-id="11685" xmlns:xlink="http://www.w3.org/1999/xlink" width="32" height="32"><defs><style type="text/css"></style></defs><path d="M772.534857 0C911.177143 0 1024 112.822857 1024 251.483429v521.051428C1024 911.195429 911.177143 1024 772.534857 1024H251.483429C112.822857 1024 0 911.195429 0 772.534857V251.483429C0 112.822857 112.822857 0 251.483429 0zM950.857143 630.692571c-34.322286-32.621714-170.331429-135.460571-397.165714 15.780572-174.372571 116.260571-402.102857 133.229714-480.054858 135.533714C78.573714 875.904 156.342857 950.857143 251.483429 950.857143h521.051428C870.857143 950.857143 950.857143 870.857143 950.857143 772.534857zM772.534857 73.142857H251.483429C153.142857 73.142857 73.142857 153.142857 73.142857 251.483429v457.216a1020.013714 1020.013714 0 0 0 35.163429-1.92 37.12 37.12 0 0 1 2.194285-7.533715l162.139429-389.156571c5.705143-13.696 18.468571-22.217143 34.011429-22.491429a36.553143 36.553143 0 0 1 33.700571 22.966857l66.011429 165.046858 63.268571-105.417143a36.571429 36.571429 0 0 1 62.701714 0l93.165715 155.264c109.385143-44.050286 196.461714-35.876571 255.396571-17.261715A322.541714 322.541714 0 0 1 950.857143 539.940571V251.483429C950.857143 153.142857 870.857143 73.142857 772.534857 73.142857z m-466.834286 347.776l-115.401142 276.992c60.690286-8.795429 133.833143-24.466286 205.312-52.260571l-89.892572-224.731429z m195.273143 39.168l-60.489143 100.827429 21.851429 54.582857a547.291429 547.291429 0 0 0 50.797714-29.897143 691.529143 691.529143 0 0 1 46.262857-28.141714l-58.422857-97.371429z m275.565715-203.52a72.411429 72.411429 0 1 1 0 144.786286 72.411429 72.411429 0 0 1 0-144.804572z" p-id="11686" fill="#8360C3"></path></svg>