<?xml version="1.0" standalone="no"?><!DOCTYPE svg PUBLIC "-//W3C//DTD SVG 1.1//EN" "http://www.w3.org/Graphics/SVG/1.1/DTD/svg11.dtd"><svg t="1634135192906" class="icon" viewBox="0 0 1024 1024" version="1.1" xmlns="http://www.w3.org/2000/svg" p-id="8612" xmlns:xlink="http://www.w3.org/1999/xlink" width="32" height="32"><defs><style type="text/css"></style></defs><path d="M602.286735 614.33737l23.025908-204.67474h-204.674739l-23.025908 204.67474z m-11.257111 102.337369h-204.674739L358.212109 978.146718a51.168685 51.168685 0 0 1-102.33737-11.25711L284.017516 716.674739H102.368685a51.168685 51.168685 0 0 1 0-102.337369h192.905941l23.025908-204.67474H102.368685a51.168685 51.168685 0 0 1 0-102.337369h227.18896L358.212109 45.853282a51.168685 51.168685 0 0 1 102.337369 11.25711L432.406701 307.325261h204.67474L665.224217 45.853282a51.168685 51.168685 0 0 1 102.33737 11.25711L739.41881 307.325261H921.067641a51.168685 51.168685 0 0 1 0 102.337369h-192.905942l-23.025908 204.67474H921.067641a51.168685 51.168685 0 0 1 0 102.337369h-227.18896L665.224217 978.146718a51.168685 51.168685 0 1 1-102.337369-11.25711z" fill="#8360C3" p-id="8613"></path></svg>