<?xml version="1.0" standalone="no"?><!DOCTYPE svg PUBLIC "-//W3C//DTD SVG 1.1//EN" "http://www.w3.org/Graphics/SVG/1.1/DTD/svg11.dtd"><svg t="1624032612229" class="icon" viewBox="0 0 1024 1024" version="1.1" xmlns="http://www.w3.org/2000/svg" p-id="3291" width="32" height="32" xmlns:xlink="http://www.w3.org/1999/xlink"><defs><style type="text/css"></style></defs><path d="M318.122667 723.285333a53.703111 53.703111 0 0 0 76.117333 0l588.572444-588.572444a53.930667 53.930667 0 0 0 0-76.231111L982.584889 58.368a53.703111 53.703111 0 0 0-76.003556 0.113778L318.122667 647.054222a53.930667 53.930667 0 0 0 0 76.231111z" fill="#1890FF" p-id="3292"></path><path d="M970.069333 431.217778h-0.227555a53.703111 53.703111 0 0 0-53.589334 53.475555v431.559111H107.861333V107.633778l431.331556 0.227555C568.888889 107.747556 593.009778 83.626667 593.009778 53.930667V53.703111A53.703111 53.703111 0 0 0 539.192889 0H53.589333A53.361778 53.361778 0 0 0 0 53.589333L-0.113778 970.524444A53.361778 53.361778 0 0 0 53.589333 1024H970.524444A53.475556 53.475556 0 0 0 1024 970.296889V484.920889a53.816889 53.816889 0 0 0-53.930667-53.703111z" fill="#1890FF" p-id="3293"></path></svg>