<?xml version="1.0" standalone="no"?><!DOCTYPE svg PUBLIC "-//W3C//DTD SVG 1.1//EN" "http://www.w3.org/Graphics/SVG/1.1/DTD/svg11.dtd"><svg t="1623893607141" class="icon" viewBox="0 0 1024 1024" version="1.1" xmlns="http://www.w3.org/2000/svg" p-id="1767" width="16" height="16" xmlns:xlink="http://www.w3.org/1999/xlink"><defs><style type="text/css"></style></defs><path d="M512 512m-496.64 0a496.64 496.64 0 1 0 993.28 0 496.64 496.64 0 1 0-993.28 0Z" fill="#0091FF" p-id="1768"></path><path d="M720.6912 267.8784h-82.5344c-12.9024 0-23.552-10.4448-23.552-23.552s10.4448-23.552 23.552-23.552h140.9024c12.9024 0 23.552 10.4448 23.552 23.552v140.9024c0 12.9024-10.4448 23.552-23.552 23.552-12.9024 0-23.552-10.4448-23.552-23.552v-85.8112L677.888 377.0368c39.936 46.6944 62.2592 106.2912 62.0544 167.7312 0 142.5408-115.5072 258.2528-258.2528 258.2528s-258.6624-115.3024-258.6624-258.048S338.5344 286.72 481.28 286.72c59.1872 0 116.736 20.2752 162.6112 57.7536 0.4096 0 76.8-76.5952 76.8-76.5952zM481.4848 756.5312c116.736 0 211.1488-94.6176 211.1488-211.1488S598.016 334.2336 481.4848 334.2336 270.336 428.4416 270.336 544.9728s94.6176 211.5584 211.1488 211.5584z" fill="#FFFFFF" p-id="1769"></path></svg>