<?xml version="1.0" standalone="no"?><!DOCTYPE svg PUBLIC "-//W3C//DTD SVG 1.1//EN" "http://www.w3.org/Graphics/SVG/1.1/DTD/svg11.dtd"><svg t="1630501638802" class="icon" viewBox="0 0 1024 1024" version="1.1" xmlns="http://www.w3.org/2000/svg" p-id="5287" xmlns:xlink="http://www.w3.org/1999/xlink" width="16" height="16"><defs><style type="text/css"></style></defs><path d="M754.725926 819.674074H301.511111c-58.026667 0-112.545185-22.565926-153.505185-63.620741C106.951111 715.093333 84.385185 660.574815 84.385185 602.548148s22.565926-112.545185 63.620741-153.505185c42.002963-42.002963 98.038519-64.663704 157.582222-63.525926 14.411852-47.502222 43.045926-90.168889 81.92-121.647407 44.278519-35.934815 100.124444-55.656296 157.202963-55.656297 66.74963 0 129.517037 25.979259 176.64 73.197037C768.568889 328.438519 794.548148 391.205926 794.548148 457.955556v0.094814c36.882963 8.154074 70.447407 27.685926 96.047408 56.130371 30.340741 33.659259 47.122963 77.179259 47.122963 122.50074 0 100.882963-82.10963 182.992593-182.992593 182.992593z m-453.214815-391.585185c-96.237037 0-174.459259 78.222222-174.459259 174.459259s78.222222 174.459259 174.459259 174.459259h453.214815c77.368889 0 140.325926-62.957037 140.325926-140.325926 0-71.68-53.665185-131.697778-124.871111-139.472592-11.472593-1.232593-19.816296-11.377778-18.962963-22.85037 0.474074-5.499259 0.663704-10.998519 0.663703-16.402963 0-114.251852-92.918519-207.17037-207.17037-207.170371-96.142222 0-181.191111 67.982222-202.145185 161.659259-2.37037 10.524444-12.231111 17.635556-23.04 16.592593-5.973333-0.663704-12.041481-0.948148-18.014815-0.948148z" p-id="5288" fill="#83C9E2"></path></svg>