<?xml version="1.0" standalone="no"?><!DOCTYPE svg PUBLIC "-//W3C//DTD SVG 1.1//EN" "http://www.w3.org/Graphics/SVG/1.1/DTD/svg11.dtd"><svg t="1630501661230" class="icon" viewBox="0 0 1024 1024" version="1.1" xmlns="http://www.w3.org/2000/svg" p-id="5490" xmlns:xlink="http://www.w3.org/1999/xlink" width="16" height="16"><defs><style type="text/css"></style></defs><path d="M955.86 596.21c0.99 8.41 0.99 17.81 0 26.71-8.9 94.95-92.97 164.67-187.42 156.76-0.49 0.49-0.49 0.49-0.99 0-2.97 0.49-5.93 0.49-8.9 0.49H264.02c-109.29 0-197.81-88.52-197.81-197.81s88.52-197.81 197.81-197.81c9.89 0 19.78 0.99 29.18 2.47 43.52-89.51 135.99-150.83 242.81-150.83 124.62 0 229.95 84.07 261.6 198.3h1.49c81.1 7.42 143.9 70.72 155.28 147.86 0.98 4.46 1.48 8.91 1.48 13.86z" fill="#83C9E2" p-id="5491"></path></svg>