<?xml version="1.0" standalone="no"?><!DOCTYPE svg PUBLIC "-//W3C//DTD SVG 1.1//EN" "http://www.w3.org/Graphics/SVG/1.1/DTD/svg11.dtd"><svg t="1630547144901" class="icon" viewBox="0 0 1024 1024" version="1.1" xmlns="http://www.w3.org/2000/svg" p-id="2324" width="32" height="32" xmlns:xlink="http://www.w3.org/1999/xlink"><defs><style type="text/css"></style></defs><path d="M511.652672 1023.306468C229.065765 1023.306468 0 794.239578 0 511.651548 0 229.065765 229.065765 0 511.652672 0c282.586907 0 511.653796 229.065765 511.653796 511.652672 0 282.586907-229.066889 511.653796-511.653796 511.653796z m0-45.51236c257.450011 0 466.141436-208.690301 466.141436-466.141436 0-257.450011-208.690301-466.140312-466.141436-466.140312C254.202661 45.51236 45.51236 254.201537 45.51236 511.651548c0 257.450011 208.690301 466.141436 466.140312 466.141436z" p-id="2325" fill="#2c2c2c"></path><path d="M283.007297 426.377414c-13.596382 10.323179-22.740443 17.365286-31.993536 24.260145-4.649027 3.466538-9.259838 7.092689-14.303403 9.902788-7.11517 3.970108-15.135192 2.007535-20.118059-4.183675-4.760307-5.9102-5.291978-14.885655-0.472097-20.774499 3.113589-3.79813 7.016255-7.054472 10.939153-10.068022 88.22811-67.785203 176.506801-135.499592 264.778748-203.224096 1.976061-1.517453 4.028558-2.931495 5.996751-4.451197 9.275574-7.169124 18.340953-6.340707 27.291679 0.633959 3.268707 2.55157 6.610476 5.015464 9.902789 7.542305 84.30184 64.713203 168.613796 129.41629 252.878542 194.174454 5.9102 4.543368 12.12951 8.937238 17.077532 14.414683 7.79409 8.624755 4.10724 23.061919-6.869005 26.541945-4.183675 1.325243-10.253488 0.755355-14.006657-1.443267-8.546072-4.996356-16.199658-11.521405-24.197198-17.455209-3.858828-2.860681-7.516452-6.161985-14.497862-6.493577-0.368685 9.026037-0.977914 17.040439-0.986907 25.050345-0.067442 82.20663-0.025853 164.41888-0.067442 246.621014-0.00562 10.791903 0.21694 21.632141-0.708145 32.361098a148.167517 148.167517 0 0 1-4.83899 26.843188c-6.114775 21.96598-20.949849 35.598332-42.976527 40.440694-12.078929 2.657229-24.614217 4.48267-36.951675 4.527631-98.812066 0.352948-197.628628 0.331592-296.444066-0.003372-11.509041-0.038217-23.179943-1.882766-34.472044-4.310692-19.407666-4.174683-32.516215-16.205278-37.990287-35.440966a142.587785 142.587785 0 0 1-4.913177-26.819583c-0.981286-11.559622-0.885743-23.224905-0.89586-34.847473-0.059574-84.697502-0.008992-169.398375-0.073062-254.095877 0-8.048123-0.566516-16.09737-1.090319-29.702744z m427.179979-22.163811c-22.389743-17.234898-44.706424-34.428206-67.042213-51.595662-21.729932-16.703227-43.298002-33.631262-65.284216-49.992782-22.421216-16.682995-43.262033-35.625308-68.348346-50.371583-64.639016 49.633089-128.438375 98.615359-191.300286 146.883864v41.415236c0 90.548127-0.019109 181.095131 0.031473 271.639886 0.003372 10.798648-0.038217 21.618652 0.682292 32.379082 1.592764 23.852119 8.134674 30.177089 32.174507 32.068848 3.31142 0.261901 6.640825 0.277638 9.961239 0.284382 19.935965 0.031473 39.875302 0.134885 59.809018-0.038218 4.711974-0.041589 9.419451-1.03524 15.555583-1.762494 0.449616-9.392474 1.149892-17.53052 1.179118-25.670814 0.127016-37.37881-0.029225-74.76324 0.13376-112.140926 0.033721-8.284171 0.630586-16.594195 1.53881-24.827785 1.031868-9.361001 7.028619-14.727166 15.800624-17.091021 3.179908-0.857642 6.535166-1.481484 9.810617-1.491601 30.734613-0.112404 61.469225-0.133761 92.201589 0.010117 4.097124 0.022481 8.268435 0.811557 12.270016 1.792843 11.65629 2.85506 19.012004 10.027557 20.264184 22.255982 0.758727 7.418661 0.977914 14.918252 0.998147 22.377379 0.095543 36.553765-0.076435 73.103034 0.146125 109.653427 0.050582 8.095333-2.00079 16.622296 2.648237 23.935297 1.834432 0.943069 3.249598 2.296413 4.670385 2.306529 24.897475 0.206823 49.801695 0.340584 74.69917 0.245041 4.094876-0.015737 8.207737-1.099311 12.274511-1.888386 14.012277-2.731416 21.831095-11.569739 23.433976-25.433642 1.144272-9.878059 1.573655-19.882011 1.587144-29.829761 0.121396-98.851407 0.085427-197.705063 0.098915-296.559842 0.00562-5.783183 0.00562-11.562995 0.005621-18.553396zM457.67517 776.985572c20.293409 0 39.325647 0.427135 58.330907-0.121396 18.738863-0.538415 37.7711 2.596531 56.572909-2.589787 0.57326-4.279218 1.373576-7.497344 1.379196-10.715469 0.093295-43.170986 0.086551-86.338599 0.070815-129.509585-0.003372-3.313668-0.044962-6.656562-0.459732-9.938758-0.898108-7.124162-4.065651-10.543491-10.779539-11.600087-3.261963-0.513686-6.603732-0.713765-9.911781-0.72051-28.22688-0.032597-56.453761-0.079807-84.678393 0.140505-3.877936 0.028101-7.742384 1.493849-11.069541 2.181761-3.657625 23.228277-3.487895 139.950788 0.545159 162.873326z" p-id="2326" fill="#2c2c2c"></path></svg>