<?xml version="1.0" standalone="no"?><!DOCTYPE svg PUBLIC "-//W3C//DTD SVG 1.1//EN" "http://www.w3.org/Graphics/SVG/1.1/DTD/svg11.dtd"><svg t="1630487407082" class="icon" viewBox="0 0 1024 1024" version="1.1" xmlns="http://www.w3.org/2000/svg" p-id="3410" xmlns:xlink="http://www.w3.org/1999/xlink" width="16" height="16"><defs><style type="text/css"></style></defs><path d="M970.571294 916.419765l-218.413176-218.292706A407.672471 407.672471 0 0 0 438.091294 30.358588 407.672471 407.672471 0 0 0 30.358588 438.091294a407.672471 407.672471 0 0 0 667.768471 314.066824l218.413176 218.413176a38.249412 38.249412 0 0 0 54.15153 0 38.550588 38.550588 0 0 0-0.120471-54.211765z m-403.57647-173.056a327.800471 327.800471 0 0 1-128.90353 26.021647 330.511059 330.511059 0 0 1-234.255059-97.039059 330.511059 330.511059 0 0 1-96.978823-234.315294 330.511059 330.511059 0 0 1 97.039059-234.255059 330.511059 330.511059 0 0 1 234.194823-96.978824 330.511059 330.511059 0 0 1 234.255059 97.039059 330.511059 330.511059 0 0 1 96.978823 234.255059 330.511059 330.511059 0 0 1-97.039058 234.255059 329.366588 329.366588 0 0 1-105.291294 71.017412z" fill="#2c2c2c" fill-opacity=".25" p-id="3411"></path></svg>