<?xml version="1.0" standalone="no"?><!DOCTYPE svg PUBLIC "-//W3C//DTD SVG 1.1//EN" "http://www.w3.org/Graphics/SVG/1.1/DTD/svg11.dtd"><svg t="1630491415978" class="icon" viewBox="0 0 1024 1024" version="1.1" xmlns="http://www.w3.org/2000/svg" p-id="7570" xmlns:xlink="http://www.w3.org/1999/xlink" width="16" height="16"><defs><style type="text/css"></style></defs><path d="M307.415153 45.510959a73.955309 73.955309 0 0 1 48.696727 17.976829l477.182409 427.689241a56.888699 56.888699 0 0 1 0 86.812155L356.11188 1006.019758A73.158867 73.158867 0 0 1 307.415153 1023.996587a73.955309 73.955309 0 0 1-48.696727-17.976829 57.571364 57.571364 0 0 1 0.45511-87.267265L680.377465 541.239085a8.647082 8.647082 0 0 0 0-12.970624L259.059759 150.641276A58.254028 58.254028 0 0 1 238.921159 107.064532C238.921159 90.794364 245.975358 75.20686 259.059759 63.487788A72.021093 72.021093 0 0 1 307.415153 45.510959z" fill="#515151" p-id="7571"></path></svg>