<?xml version="1.0" standalone="no"?><!DOCTYPE svg PUBLIC "-//W3C//DTD SVG 1.1//EN" "http://www.w3.org/Graphics/SVG/1.1/DTD/svg11.dtd"><svg t="1623997455397" class="icon" viewBox="0 0 1365 1024" version="1.1" xmlns="http://www.w3.org/2000/svg" p-id="2484" width="21.328125" height="16" xmlns:xlink="http://www.w3.org/1999/xlink"><defs><style type="text/css"></style></defs><path d="M386.833067 0c25.1904 0 45.533867 20.343467 45.533866 45.499733v182.0672c0 25.156267-20.343467 45.499733-45.533866 45.499734A45.4656 45.4656 0 0 1 341.333333 227.566933V45.499733C341.333333 20.343467 361.6768 0 386.833067 0zM682.666667 0c25.1904 0 45.499733 20.343467 45.499733 45.499733v182.0672C728.1664 252.7232 707.857067 273.066667 682.666667 273.066667a45.4656 45.4656 0 0 1-45.499734-45.499734V45.499733C637.166933 20.343467 657.476267 0 682.666667 0z m295.8336 0C1003.656533 0 1024 20.343467 1024 45.499733v182.0672C1024 252.7232 1003.656533 273.066667 978.500267 273.066667a45.4656 45.4656 0 0 1-45.533867-45.499734V45.499733C932.9664 20.343467 953.344 0 978.500267 0z" p-id="2485"></path><path d="M227.566933 318.5664v591.6672h910.199467V318.5664H227.566933z m0-90.999467h910.199467A91.136 91.136 0 0 1 1228.8 318.5664v591.6672a91.136 91.136 0 0 1-91.0336 90.999467H227.566933A91.136 91.136 0 0 1 136.533333 910.2336V318.5664a91.136 91.136 0 0 1 91.0336-90.999467zM136.533333 477.866667h1069.499734v97.518933H136.533333V477.866667zM45.499733 910.2336h1274.333867c25.156267 0 45.499733 20.309333 45.499733 45.499733s-20.343467 45.499733-45.499733 45.499734H45.499733A45.4656 45.4656 0 0 1 0 955.733333c0-25.1904 20.343467-45.499733 45.499733-45.499733z" p-id="2486"></path></svg>