<?xml version="1.0" standalone="no"?><!DOCTYPE svg PUBLIC "-//W3C//DTD SVG 1.1//EN" "http://www.w3.org/Graphics/SVG/1.1/DTD/svg11.dtd"><svg t="1623893617888" class="icon" viewBox="0 0 1024 1024" version="1.1" xmlns="http://www.w3.org/2000/svg" p-id="1226" xmlns:xlink="http://www.w3.org/1999/xlink" width="16" height="16"><defs><style type="text/css"></style></defs><path d="M512 0C229.233778 0 0 229.233778 0 512s229.233778 512 512 512 512-229.233778 512-512S794.766222 0 512 0z" fill="#FF7F91" p-id="1227"></path><path d="M287.943111 758.243556l-0.284444-0.455112-0.768-1.365333-0.284445-0.654222-0.568889-1.28-0.256-0.711111-0.426666-1.28-0.199111-0.796445-0.284445-1.251555-0.142222-1.052445-0.142222-1.052444-0.142223-2.133333v-140.174223c0-12.032 9.415111-21.788444 21.048889-21.788444s21.048889 9.728 21.048889 21.788444v87.608889l99.584-102.997333 2.844445-2.446222a203.463111 203.463111 0 0 1-48.156445-132.010667c0-110.392889 86.840889-200.192 193.564445-200.192C681.159111 256 768 345.827556 768 456.192c0 110.392889-86.840889 200.220444-193.592889 200.220444a188.387556 188.387556 0 0 1-115.2-39.424l-3.271111 4.437334-99.584 102.997333h84.707556c11.633778 0 21.048889 9.728 21.048888 21.788445s-9.443556 21.788444-21.077333 21.788444H305.493333l-2.076444-0.113778-1.024-0.142222-0.995556-0.170667-1.194666-0.312889-0.768-0.199111-1.223111-0.455111-0.682667-0.256-1.223111-0.597333-0.625778-0.312889-1.308444-0.796444-0.455112-0.284445-1.649777-1.251555h-0.028445l-3.043555-3.157334v-0.028444l-1.251556-1.678222z m286.464-145.351112c83.541333 0 151.495111-70.286222 151.495111-156.672s-67.953778-156.643556-151.495111-156.643555c-83.512889 0-151.466667 70.286222-151.466667 156.643555 0 86.385778 67.953778 156.672 151.466667 156.672z" fill="#FFFFFF" p-id="1228"></path><path d="M287.943111 758.243556l6.144-3.612445-0.284444-0.455111-6.144 3.612444 6.172444-3.527111-0.625778-1.109333-0.085333-0.170667-0.512-1.109333-0.142222-0.426667-6.712889 2.360889 6.741333-2.275555-0.341333-0.967111-0.142222-0.540445-6.912 1.706667 6.912-1.621334-0.227556-0.938666-0.113778-0.739556-0.085333-0.682666-0.085333-1.678223v-139.975111a14.364444 14.364444 0 0 1 13.937777-14.677333 14.336 14.336 0 0 1 13.937778 14.677333v105.187556l111.559111-115.399111 2.616889-2.247111 5.376-4.608-4.579555-5.376a196.238222 196.238222 0 0 1-46.478223-127.402667c0-53.304889 20.963556-101.575111 54.755556-136.561778 33.820444-34.958222 80.355556-56.547556 131.697778-56.547555 51.342222 0 97.905778 21.589333 131.726222 56.547555a195.953778 195.953778 0 0 1 54.755556 136.561778 195.953778 195.953778 0 0 1-54.755556 136.561778c-33.820444 34.958222-80.355556 56.547556-131.726222 56.547555a181.361778 181.361778 0 0 1-110.876445-37.944889l-5.745777-4.408889-7.310223 9.898667-110.904889 114.716445h101.489778a14.336 14.336 0 0 1 13.937778 14.677333 14.364444 14.364444 0 0 1-13.937778 14.677333h-135.367111l-1.536-0.085333-0.682667-0.113778-0.625777-0.113778-0.910223-0.227555-1.735111 6.912 1.820445-6.883556-0.455111-0.113778-0.967111-0.341333-2.417778 6.684445 2.531555-6.656-0.398222-0.142223-0.967111-0.455111-3.072 6.4 3.157333-6.371555-0.341333-0.170667-1.024-0.625778 0.056889 0.028445-0.199111-0.113778-1.365334-1.052445-4.295111 5.660445 4.721778-5.319111h-0.028444l-4.721778 5.319111 5.12-4.949333-3.043556-3.157334-5.12 4.949334 6.087111-3.669334v-0.028444l-0.142222-0.227556-1.365333-1.934222-5.745778 4.067556 6.144-3.612445-6.144 3.612445-5.774222 4.124444 1.194667 1.706667 5.802666-4.124445-6.087111 3.669334v0.028444l0.426667 0.711111 3.612444 3.726222 0.199111 0.199111 0.199111 0.199112 0.199112 0.170666 1.848888 1.422222 0.284445 0.199112 0.711111 0.455111 0.056889 0.028444 1.308444 0.796445 0.256 0.170666 0.910223 0.455111 0.056888 0.028445 1.223112 0.597333 0.284444 0.142222 0.967111 0.369778 0.227556 0.085333 1.109333 0.398223 0.256 0.085333 1.109333 0.284444 0.113778 0.028445 1.194667 0.312889 0.256 0.056889 1.365333 0.227555 1.080889 0.170667 0.312889 0.056889 2.446222 0.142222h135.907556c15.758222-0.028444 28.131556-13.112889 28.16-28.871111-0.028444-15.786667-12.401778-28.871111-28.16-28.899556h-67.953778l88.291555-91.306666 3.555556-4.807111-5.717333-4.238223-4.323556 5.632a195.470222 195.470222 0 0 0 119.523556 40.903111c55.381333 0 105.642667-23.324444 141.937777-60.871111a210.261333 210.261333 0 0 0 58.766223-146.460444c0-57.059556-22.471111-108.885333-58.766223-146.432-36.295111-37.546667-86.556444-60.871111-141.937777-60.871111s-105.642667 23.324444-141.937778 60.871111a210.232889 210.232889 0 0 0-58.766222 146.432 210.488889 210.488889 0 0 0 49.863111 136.618667l5.432889-4.608-4.636445-5.404445-2.844444 2.446222-0.227556 0.199111-87.608889 90.624v-70.030222c-0.028444-15.786667-12.401778-28.871111-28.16-28.899555-15.758222 0.028444-28.131556 13.112889-28.16 28.899555v140.401778l0.113778 2.275556v0.312888l0.199111 1.393778 0.170667 1.109334 0.056889 0.312888 0.369778 1.507556 0.028444 0.056889 0.199111 0.796444 0.085333 0.312889 0.512 1.536 0.028445 0.085334 0.256 0.711111 0.085333 0.284444 0.711111 1.564445 0.028445 0.085333 0.284444 0.654222 0.113778 0.256 0.938667 1.621333 0.028444 0.056889 0.284445 0.455111 0.142222 0.227556 0.199111 0.284444 5.774222-4.152888z m286.464-145.351112v7.111112c87.665778-0.028444 158.435556-73.642667 158.606222-163.783112-0.170667-90.140444-70.940444-163.726222-158.606222-163.754666-87.637333 0.028444-158.407111 73.642667-158.577778 163.754666 0.170667 90.140444 70.940444 163.726222 158.577778 163.783112v-14.222223a141.397333 141.397333 0 0 1-101.944889-43.776 151.836444 151.836444 0 0 1-42.410666-105.784889c0-41.301333 16.241778-78.705778 42.410666-105.784888a141.397333 141.397333 0 0 1 101.944889-43.776c39.736889 0 75.747556 16.696889 101.944889 43.776a151.779556 151.779556 0 0 1 42.410667 105.784888 151.779556 151.779556 0 0 1-42.410667 105.784889 141.397333 141.397333 0 0 1-101.944889 43.776v7.111111z" fill="#FFFFFF" p-id="1229"></path></svg>